<svg width="200" viewBox="0 0 177 171" fill="none" xmlns="http://www.w3.org/2000/svg">
    <g opacity="0.25">
        <rect x="109.859" y="2.33209" width="67.0548" height="67.0548" rx="15.25" transform="rotate(30 109.859 2.33209)"
              fill="currentColor"></rect>
        <rect x="147.477" y="-40.4726" width="44.7032" height="44.7032" rx="11.4375"
              transform="rotate(30 147.477 -40.4726)" fill="currentColor"></rect>
        <rect x="184.694" y="6.82394" width="33.5274" height="33.5274" rx="15.25" transform="rotate(30 184.694 6.82394)"
              fill="currentColor"></rect>
        <rect x="172.021" y="51.1259" width="44.7032" height="44.7032" rx="11.4375"
              transform="rotate(30 172.021 51.1259)" fill="currentColor"></rect>
        <rect x="134.403" y="93.9307" width="33.5274" height="33.5274" rx="15.25" transform="rotate(30 134.403 93.9307)"
              fill="currentColor"></rect>
        <rect x="80.4225" y="75.6697" width="44.7032" height="44.7032" rx="11.4375"
              transform="rotate(30 80.4225 75.6697)" fill="currentColor"></rect>
        <rect x="47.2963" y="43.6396" width="33.5274" height="33.5274" rx="15.25" transform="rotate(30 47.2963 43.6396)"
              fill="currentColor"></rect>
        <rect x="55.8789" y="-15.9289" width="44.7032" height="44.7032" rx="11.4375"
              transform="rotate(30 55.8789 -15.9289)" fill="currentColor"></rect>
        <rect x="97.5874" y="-43.4672" width="33.5274" height="33.5274" rx="15.25"
              transform="rotate(30 97.5874 -43.4672)" fill="currentColor"></rect>
    </g>
</svg>
